<?xml version="1.0" encoding="utf-8"?>
<!-- Generator: Adobe Illustrator 19.1.0, SVG Export Plug-In . SVG Version: 6.00 Build 0)  -->
<svg version="1.1" id="Calque_1" xmlns="http://www.w3.org/2000/svg" xmlns:xlink="http://www.w3.org/1999/xlink" x="0px" y="0px"
	 viewBox="0 0 128 128" style="enable-background:new 0 0 128 128;" xml:space="preserve">
<style type="text/css">
	.st0{fill:#FFFFFF;}
	.st1{fill:#515254;}
	.st2{fill:#FFB000;}
	.st3{fill:#53E3E6;}
	.st4{fill:none;stroke:#4D5152;stroke-width:2;stroke-miterlimit:10;}
	.st5{fill:#4D5152;}
	.st6{fill:#FFCC3E;}
</style>
<circle class="st0" cx="64" cy="64" r="62"/>
<path class="st1" d="M64,127C29.3,127,1,98.7,1,64S29.3,1,64,1s63,28.3,63,63S98.7,127,64,127z M64,3C30.4,3,3,30.4,3,64
	s27.4,61,61,61s61-27.4,61-61S97.6,3,64,3z"/>
<circle class="st2" cx="64" cy="64" r="47"/>
<path class="st3" d="M81.1,93.9l21.4,6.4l6.4,6.4C97.6,118.6,81.7,126,64,126c-17.6,0-33.5-7.5-44.9-19.2l6.4-6.4l21.4-6.4"/>
<polygon class="st0" points="72.6,102.5 64,98.2 55.4,102.5 46.9,93.9 51.2,87.5 53.3,87.5 53.3,79 64,81.1 74.7,79 74.7,87.5 
	76.8,87.5 81.1,93.9 "/>
<path class="st4" d="M79,93.9"/>
<path class="st5" d="M72.7,103.7L64,99.3l-8.7,4.4l-9.6-9.6l5.1-7.6L64,88.6l13.3-2.2l5.1,7.6L72.7,103.7z M64,97.1l8.4,4.2l7.5-7.5
	l-3.5-5.2L64,90.7l-12.4-2.1l-3.5,5.2l7.5,7.5L64,97.1z"/>
<rect x="73.7" y="79" class="st5" width="2" height="8.6"/>
<rect x="52.3" y="79" class="st5" width="2" height="8.6"/>
<rect x="61.9" y="107.9" class="st5" width="4.3" height="2"/>
<rect x="61.9" y="116.4" class="st5" width="4.3" height="2"/>
<path class="st0" d="M83.2,51.2v8.6c-2.1,15-8.6,19.2-8.6,19.2C70.4,81.1,64,81.1,64,81.1s-6.4,0-10.7-2.1c0,0-6.4-4.3-8.6-19.2
	v-8.6l8.6-4.3l21.4,8.6L83.2,51.2z"/>
<path class="st6" d="M44.8,51.2c0-13,6.3-19.2,19.2-19.2c13,0,19.2,9.6,19.2,22.6L74.8,58L64,51.2l-10.7-4.3L44.8,51.2z"/>
<path class="st5" d="M64,82.1c-0.3,0-6.7,0-11.1-2.2l-0.1-0.1c-0.3-0.2-6.8-4.7-9-19.9l0-0.1v-8.6h2v8.5c2,13.7,7.5,18.1,8.1,18.5
	c4,2,10.1,2,10.2,2c0.1,0,6.2,0,10.2-2c0.5-0.4,6.1-4.9,8.1-18.5v-8.5h2l0,8.7c-2.2,15.2-8.7,19.7-9,19.9l-0.1,0.1
	C70.7,82.1,64.3,82.1,64,82.1z"/>
<path class="st5" d="M84.2,51.2h-2c0-12.4-5.8-18.2-18.2-18.2c-12.4,0-18.2,5.8-18.2,18.2h-2c0-13.6,6.6-20.2,20.2-20.2
	S84.2,37.6,84.2,51.2z"/>
<polygon class="st5" points="74.7,58.9 53.4,48 45.2,52.1 44.3,50.3 53.3,45.8 74.6,56.7 82.8,53.7 83.7,55.4 "/>
<path class="st5" d="M64,127c-17.3,0-33.5-6.9-45.6-19.5c-0.4-0.4-0.4-1,0-1.4l6.4-6.4c0.1-0.1,0.3-0.2,0.4-0.3L46.6,93l0.6,1.9
	L26,101.2l-5.5,5.5C32.2,118.5,47.6,125,64,125c16.5,0,31.9-6.5,43.5-18.2l-5.5-5.5l-21.1-6.3l0.6-1.9l21.4,6.4
	c0.2,0,0.3,0.1,0.4,0.3l6.4,6.4c0.4,0.4,0.4,1,0,1.4C97.6,120.1,81.4,127,64,127z"/>
</svg>
